<svg width="13" height="13" viewBox="0 0 13 13" fill="none" xmlns="http://www.w3.org/2000/svg">
<path d="M6.93909 12.8639H0.773638C0.381126 12.8639 0.0631409 12.5471 0.0631409 12.1564V0.753578C0.0631409 0.362808 0.381176 0.0461426 0.773638 0.0461426H12.2258C12.6182 0.0461426 12.9363 0.362808 12.9363 0.753578V12.1564C12.9363 12.5471 12.6181 12.8639 12.2258 12.8639H8.94541V7.90015H10.6187L10.8693 5.96569H8.94541V4.73066C8.94541 4.17059 9.1016 3.78893 9.90821 3.78893L10.937 3.78848V2.05828C10.7591 2.03471 10.1484 1.98204 9.43787 1.98204C7.95459 1.98204 6.93909 2.88354 6.93909 4.53908V5.96569H5.2615V7.90015H6.93909V12.8639Z" fill="white"/>
</svg>
