<svg width="15" height="13" viewBox="0 0 15 13" fill="none" xmlns="http://www.w3.org/2000/svg">
<path fill-rule="evenodd" clip-rule="evenodd" d="M2.2925 3.061H2.27218C1.25599 3.061 0.597168 2.39903 0.597168 1.55992C0.597168 0.704497 1.27547 0.0563965 2.31198 0.0563965C3.34764 0.0563965 3.98445 0.702865 4.00477 1.55748C4.00477 2.39658 3.34764 3.061 2.2925 3.061ZM15.0003 12.804H11.8171V8.32276C11.8171 7.14981 11.3191 6.34908 10.2242 6.34908C9.38668 6.34908 8.92093 6.88943 8.70415 7.4102C8.63257 7.57477 8.63386 7.7963 8.63519 8.02464C8.63537 8.05564 8.63555 8.08676 8.63555 8.11788V12.804H5.48199C5.48199 12.804 5.52264 4.86595 5.48199 4.14439H8.63555V5.50344C8.82185 4.90921 9.82957 4.06113 11.4377 4.06113C13.4328 4.06113 15.0003 5.30673 15.0003 7.98892V12.804ZM3.76855 4.14386H0.961337V12.8034H3.76855V4.14386Z" fill="white"/>
</svg>
