<svg width="14" height="12" viewBox="0 0 14 12" fill="none" xmlns="http://www.w3.org/2000/svg">
<path d="M14.0003 1.42058C13.4859 1.66154 12.932 1.82449 12.3511 1.89729C12.9444 1.52286 13.3996 0.929144 13.6141 0.221885C13.0586 0.568581 12.4447 0.820802 11.789 0.956013C11.2664 0.367497 10.5194 0 9.69274 0C8.1076 0 6.82158 1.35645 6.82158 3.02925C6.82158 3.26674 6.84623 3.49729 6.89553 3.71918C4.50838 3.59263 2.39239 2.38787 0.97489 0.55298C0.727546 1.00195 0.586206 1.52286 0.586206 2.07757C0.586206 3.12806 1.09322 4.05547 1.86401 4.59892C1.39398 4.58418 0.950238 4.44637 0.562376 4.22102V4.25829C0.562376 5.72654 1.55257 6.95125 2.86736 7.2286C2.62659 7.29968 2.37267 7.33521 2.11054 7.33521C1.92564 7.33521 1.74486 7.31701 1.56983 7.28147C1.93551 8.48451 2.99555 9.36078 4.25281 9.38418C3.27001 10.1972 2.03083 10.6817 0.685637 10.6817C0.453906 10.6817 0.22464 10.6678 0.000305176 10.6401C1.27154 11.4982 2.7819 12 4.40319 12C9.68699 12 12.5754 7.38462 12.5754 3.38115C12.5754 3.2494 12.5729 3.11766 12.568 2.98852C13.1293 2.56121 13.6166 2.02817 14.0003 1.42058Z" fill="white"/>
</svg>
