<svg width="17" height="13" viewBox="0 0 17 13" fill="none" xmlns="http://www.w3.org/2000/svg">
<path fill-rule="evenodd" clip-rule="evenodd" d="M16.191 1.76985C16.6785 2.27452 16.8376 3.42053 16.8376 3.42053C16.8376 3.42053 17.0003 4.76665 17.0003 6.11225V7.37416C17.0003 8.72028 16.8376 10.0659 16.8376 10.0659C16.8376 10.0659 16.6785 11.2119 16.191 11.7166C15.6337 12.3136 15.0157 12.3752 14.6664 12.4101C14.628 12.4139 14.5928 12.4175 14.5613 12.4213C12.285 12.5897 8.86691 12.5949 8.86691 12.5949C8.86691 12.5949 4.63755 12.5554 3.33621 12.4276C3.27455 12.4158 3.19981 12.4066 3.11517 12.3962C2.70295 12.3457 2.05596 12.2663 1.54228 11.7166C1.05479 11.2119 0.896188 10.0659 0.896188 10.0659C0.896188 10.0659 0.733521 8.72028 0.733521 7.37416V6.11225C0.733521 4.76665 0.896188 3.42053 0.896188 3.42053C0.896188 3.42053 1.05479 2.27452 1.54228 1.76985C2.10088 1.17201 2.71946 1.11099 3.06881 1.07653C3.10668 1.0728 3.1414 1.06937 3.17252 1.06561C5.44886 0.897217 8.86336 0.897217 8.86336 0.897217H8.87047C8.87047 0.897217 12.285 0.897217 14.5613 1.06561C14.5924 1.06938 14.6272 1.07281 14.6651 1.07655C15.0141 1.11101 15.633 1.17211 16.191 1.76985ZM7.18606 4.23046L7.18656 8.9034L11.5811 6.57498L7.18606 4.23046Z" fill="white"/>
</svg>
