<svg width="220" height="54" viewBox="0 0 220 54" fill="none" xmlns="http://www.w3.org/2000/svg">
<g clip-path="url(#clip0_2_28)">
<path d="M30.3797 53.8482C45.2494 53.8482 57.3037 41.7938 57.3037 26.9241C57.3037 12.0543 45.2494 0 30.3797 0C15.5099 0 3.45557 12.0543 3.45557 26.9241C3.45557 41.7938 15.5099 53.8482 30.3797 53.8482Z" fill="white"/>
<g clip-path="url(#clip1_2_28)">
<path d="M6.10352e-05 30.6196C0.959921 30.0436 2.06376 29.6597 3.21559 29.4677C4.36743 29.2758 5.56725 29.3237 6.76708 29.6597C7.91891 29.9956 9.02275 30.6196 9.93462 31.3874L10.2706 31.6754C10.3666 31.7714 10.4625 31.8194 10.5585 31.9154C10.7505 32.0593 10.9425 32.1553 11.0864 32.2033C11.2304 32.2513 11.3264 32.2513 11.4224 32.2033C11.5184 32.1553 11.6144 32.1073 11.7584 31.9634C12.0463 31.6754 12.2863 31.2915 12.5262 30.8115C12.7662 30.3316 12.9582 29.8517 13.1501 29.3237C13.5341 28.3159 13.87 27.2121 14.254 26.1562C14.446 25.6283 14.6859 25.0524 14.9739 24.4764C15.1179 24.1885 15.2618 23.9005 15.4538 23.6126C15.6458 23.3246 15.8858 22.9887 16.2697 22.7007C16.4617 22.5567 16.7016 22.3648 17.0376 22.2688C17.3255 22.1728 17.7095 22.1248 18.0454 22.1728C18.3814 22.2208 18.6693 22.3168 18.9093 22.4607C19.1493 22.6047 19.2933 22.7007 19.4852 22.8447C20.1571 23.4206 20.5411 24.0445 20.829 24.6204C21.4529 25.8203 21.7889 26.9721 22.1248 28.0759C22.4608 29.1798 22.7008 30.3316 22.9887 31.3395C23.1327 31.8674 23.2767 32.3473 23.4686 32.7312C23.5646 32.9232 23.6606 33.0672 23.6606 33.0672C23.6606 33.0672 23.6126 32.9712 23.4207 32.8752C23.2287 32.7312 22.7967 32.7313 22.6048 32.7792C22.4128 32.8272 22.3648 32.8752 22.3648 32.8752C22.3648 32.8752 22.4128 32.8272 22.4608 32.7792C22.5568 32.6833 22.7008 32.4913 22.7967 32.2993C22.9887 31.9154 23.2287 31.4834 23.3727 31.0035C24.0926 29.0838 24.6205 26.8761 25.1964 24.7164C25.7723 22.5087 26.2522 20.3011 26.9721 18.0454C27.1641 17.4695 27.3561 16.8936 27.644 16.2696C27.788 15.9817 27.932 15.6457 28.124 15.3098C28.3159 14.9738 28.5559 14.6379 28.9878 14.2059C29.2278 14.014 29.5158 13.774 29.9477 13.63C30.3796 13.486 30.9556 13.486 31.3875 13.582C31.8194 13.726 32.1554 13.918 32.3953 14.11C32.4913 14.2059 32.5873 14.3019 32.7313 14.3979L32.9713 14.6859C33.4992 15.3578 33.8351 15.9817 34.0751 16.6056C34.603 17.8054 34.891 18.9573 35.1789 20.1091C35.4669 21.2609 35.6589 22.4127 35.8508 23.5166C36.2348 25.7723 36.5707 27.9799 37.0507 30.0916C37.1467 30.6196 37.2906 31.0995 37.4346 31.5794C37.5306 31.8194 37.5786 32.0114 37.6746 32.2033C37.7706 32.3953 37.8666 32.4913 37.8666 32.5393C37.8666 32.5393 37.8666 32.5393 37.7226 32.4913C37.6266 32.4433 37.4346 32.4433 37.3386 32.4433C37.2426 32.4433 37.1467 32.4913 37.1467 32.4913C37.1467 32.4913 37.1947 32.4913 37.1947 32.4433C37.2426 32.4433 37.2426 32.3953 37.2906 32.3953C37.5786 32.2033 37.8666 31.8674 38.1545 31.4834C38.7304 30.7155 39.2584 29.7557 39.7863 28.7478C40.0742 28.2679 40.3622 27.74 40.6981 27.2121C41.0341 26.6841 41.418 26.1562 42.0419 25.6283C42.3299 25.3883 42.7618 25.1483 43.1938 25.0044C43.6737 24.8604 44.2016 24.8604 44.6336 25.0044C45.4974 25.2443 46.0734 25.7243 46.5533 26.1562C47.3692 26.9721 48.1371 27.692 49.0009 28.4119C50.6807 29.8517 52.5044 31.1475 54.4241 32.1553C55.384 32.6833 56.4399 33.1152 57.4957 33.3552C58.5515 33.6431 59.7034 33.7391 60.8072 33.4511C59.7514 33.9311 58.5515 33.9791 57.3997 33.8831C56.2479 33.7871 55.096 33.4511 53.9922 33.0672C51.7845 32.2513 49.7688 31.0995 47.8491 29.8037C46.8892 29.1318 45.9774 28.4119 45.1135 27.692C44.7296 27.404 44.3456 27.1641 44.1056 27.1641C44.0097 27.1641 43.9137 27.1641 43.8657 27.2121C43.8177 27.26 43.7217 27.308 43.5777 27.452C43.3378 27.692 43.0498 28.0759 42.8098 28.5079C42.5699 28.9398 42.3299 29.4197 42.0899 29.9477C41.61 30.9555 41.1301 32.0114 40.4102 33.1152C40.0262 33.6431 39.6423 34.219 39.0184 34.699C38.9224 34.747 38.8744 34.8429 38.7784 34.8909C38.6824 34.9389 38.6344 34.9869 38.4905 35.0829C38.2505 35.2269 37.9145 35.3709 37.5306 35.4189C37.1467 35.4669 36.6667 35.3709 36.3308 35.2269C35.9468 35.0829 35.7549 34.8429 35.5149 34.651C35.131 34.267 34.939 33.9311 34.747 33.5951C34.555 33.2592 34.459 32.9712 34.3151 32.6353C34.0751 32.0114 33.9311 31.4354 33.7392 30.8595C33.1152 28.5559 32.7793 26.3482 32.2994 24.1405C32.0594 23.0367 31.8674 21.9808 31.5795 20.925C31.2915 19.8691 31.0036 18.8613 30.6196 17.9974C30.4276 17.5655 30.2357 17.1815 30.0437 16.9895C29.9957 16.8936 29.8997 16.9415 30.2357 17.0855C30.4276 17.1335 30.6676 17.1335 30.8596 17.0855C31.0036 17.0375 31.0995 16.9895 31.0995 16.9415C31.1475 16.8936 31.0036 17.0375 30.9556 17.1815C30.8596 17.3255 30.7636 17.5175 30.6676 17.7574C30.4756 18.1894 30.2837 18.6693 30.1397 19.1492C29.4678 21.1649 28.9399 23.3726 28.3639 25.5803C27.788 27.788 27.2121 29.9956 26.3002 32.2993C26.0603 32.8752 25.7723 33.4511 25.4364 34.0751C25.4364 34.459 25.2444 34.747 24.9564 35.0349C24.8125 35.1789 24.6685 35.3709 24.4285 35.5148C24.1885 35.7068 23.9486 35.8988 23.4686 36.0428C23.3247 36.0908 23.2287 36.0908 23.0847 36.1388C22.9407 36.1388 22.7967 36.1388 22.6528 36.1388C22.3648 36.0908 22.0768 35.9948 21.8369 35.8988C21.357 35.6588 21.165 35.3709 20.973 35.1309C20.6371 34.699 20.4931 34.315 20.3971 33.9791C20.1571 33.3072 20.0132 32.7312 19.8692 32.1553L19.1973 28.8438C18.9573 27.788 18.6693 26.7321 18.2854 25.9162C18.0934 25.4843 17.8535 25.1484 17.6615 24.9564L17.6135 24.9084L17.5655 24.8604C17.5655 24.8604 17.5655 24.8604 17.6615 24.8604C17.7095 24.8604 17.8055 24.8604 17.8535 24.8124C17.9015 24.7644 17.9015 24.7644 17.8535 24.8124C17.7095 24.8604 17.4215 25.2923 17.1816 25.7243C16.9416 26.1562 16.7016 26.6361 16.4617 27.1161C15.9817 28.1239 15.5498 29.1798 15.0699 30.2356C14.8299 30.7635 14.5419 31.2915 14.206 31.8194C13.87 32.3473 13.5341 32.8752 12.9582 33.3552C12.6702 33.5951 12.2863 33.8351 11.8063 33.9311C11.3264 34.0271 10.8465 33.9311 10.4625 33.7871C10.0786 33.5951 9.79064 33.4032 9.55067 33.1632C9.40669 33.0672 9.31071 32.9232 9.21472 32.8272L8.97476 32.5393C8.25486 31.7714 7.39099 31.1475 6.43113 30.7155C4.46341 29.8037 2.11175 29.8517 6.10352e-05 30.6196Z" fill="#0E1645"/>
</g>
<path d="M81.7802 36.3307H81.4442C80.7723 37.4345 79.8604 38.2984 78.7086 38.9223C77.5568 39.5462 76.261 39.8822 74.7732 39.8822C72.0376 39.8822 70.0219 39.0663 68.6781 37.3865C67.3343 35.7068 66.6624 33.4991 66.6624 30.6675V17.5654H72.4215V29.9476C72.4215 31.4834 72.7575 32.6832 73.4774 33.4031C74.1493 34.171 75.1571 34.507 76.5009 34.507C77.3168 34.507 77.9887 34.315 78.6126 33.979C79.2365 33.6431 79.7165 33.1632 80.1484 32.6352C80.5803 32.0593 80.9163 31.3874 81.1083 30.6195C81.3482 29.8516 81.4442 28.9878 81.4442 28.1239V17.5654H87.2034V39.1623H81.7802V36.3307Z" fill="white"/>
<path d="M95.7943 20.3488H96.1303C96.8022 19.245 97.714 18.3811 98.8659 17.7572C100.018 17.1333 101.313 16.7974 102.801 16.7974C104.145 16.7974 105.345 17.0373 106.353 17.4693C107.361 17.9012 108.224 18.5251 108.896 19.341C109.568 20.1569 110.048 21.1167 110.384 22.2686C110.72 23.4204 110.912 24.6682 110.912 26.06V39.1621H105.153V26.7799C105.153 25.2441 104.817 24.0443 104.097 23.3244C103.425 22.5565 102.417 22.2206 101.074 22.2206C100.258 22.2206 99.5858 22.4125 98.9618 22.7485C98.3379 23.0844 97.858 23.5644 97.4261 24.0923C96.9941 24.6682 96.6582 25.3401 96.4662 26.108C96.2262 26.8759 96.1303 27.7398 96.1303 28.6036V39.2101H90.3711V17.6132H95.7943V20.3488Z" fill="white"/>
<path d="M122.238 39.882C120.847 39.882 119.551 39.69 118.447 39.3541C117.343 39.0181 116.383 38.5382 115.567 37.9623C114.751 37.3864 114.08 36.7145 113.504 35.9946C112.928 35.2267 112.496 34.5068 112.208 33.7389L117.343 31.5312C117.823 32.6351 118.495 33.4989 119.359 34.0269C120.175 34.5548 121.135 34.8427 122.142 34.8427C123.198 34.8427 124.062 34.6508 124.638 34.2668C125.262 33.8829 125.55 33.4509 125.55 32.923C125.55 32.3471 125.31 31.8672 124.782 31.4832C124.254 31.0993 123.39 30.7633 122.094 30.4754L119.071 29.8035C118.399 29.6595 117.679 29.4195 116.959 29.0836C116.239 28.7476 115.567 28.3637 114.991 27.8358C114.416 27.3558 113.936 26.7319 113.552 26.012C113.168 25.2921 112.976 24.4762 112.976 23.5644C112.976 22.5085 113.216 21.5487 113.648 20.7328C114.08 19.9169 114.751 19.197 115.519 18.6211C116.287 18.0452 117.247 17.6132 118.303 17.2773C119.359 16.9893 120.511 16.7974 121.758 16.7974C123.822 16.7974 125.646 17.1813 127.278 17.9972C128.909 18.8131 130.061 20.1089 130.829 21.8366L125.838 23.8523C125.406 22.9885 124.83 22.3646 124.014 21.9806C123.198 21.5967 122.43 21.4047 121.614 21.4047C120.799 21.4047 120.079 21.5967 119.455 21.9326C118.831 22.2686 118.543 22.7005 118.543 23.2284C118.543 23.7084 118.783 24.1403 119.311 24.4283C119.839 24.7162 120.511 25.0042 121.422 25.2441L124.734 26.06C126.942 26.5879 128.573 27.4518 129.629 28.6036C130.685 29.7555 131.261 31.1473 131.261 32.731C131.261 33.6909 131.021 34.5548 130.589 35.4187C130.157 36.2825 129.533 37.0504 128.717 37.6743C127.902 38.3462 126.942 38.8742 125.79 39.2581C124.878 39.69 123.63 39.882 122.238 39.882Z" fill="white"/>
<path d="M136.252 14.638C135.772 14.638 135.292 14.542 134.812 14.35C134.332 14.1581 133.949 13.9181 133.613 13.5342C133.277 13.1982 132.989 12.8143 132.797 12.3823C132.605 11.9504 132.509 11.4705 132.509 10.9425C132.509 10.4146 132.605 9.93468 132.797 9.50274C132.989 9.0708 133.229 8.68686 133.613 8.35091C133.949 8.01496 134.332 7.727 134.812 7.53503C135.244 7.34306 135.724 7.24707 136.252 7.24707C137.26 7.24707 138.172 7.63101 138.892 8.35091C139.612 9.0708 139.996 9.93468 139.996 10.9905C139.996 11.9984 139.612 12.9102 138.892 13.6301C138.124 14.302 137.26 14.638 136.252 14.638ZM133.373 39.1624V17.5656H139.132V39.1624H133.373Z" fill="white"/>
<path d="M148.106 20.3488H148.442C149.114 19.245 150.026 18.3811 151.178 17.7572C152.33 17.1333 153.626 16.7974 155.113 16.7974C156.457 16.7974 157.657 17.0373 158.665 17.4693C159.673 17.9012 160.537 18.5251 161.209 19.341C161.88 20.1569 162.36 21.1167 162.696 22.2686C163.032 23.4204 163.224 24.6682 163.224 26.06V39.1621H157.465V26.7799C157.465 25.2441 157.129 24.0443 156.409 23.3244C155.737 22.5565 154.729 22.2206 153.386 22.2206C152.57 22.2206 151.898 22.4125 151.274 22.7485C150.65 23.0844 150.17 23.5644 149.738 24.0923C149.306 24.6682 148.97 25.3401 148.778 26.108C148.538 26.8759 148.442 27.7398 148.442 28.6036V39.2101H142.683V17.6132H148.106V20.3488Z" fill="white"/>
<path d="M186.693 33.931C185.685 35.7067 184.341 37.0985 182.662 38.2024C180.982 39.3062 178.918 39.8341 176.47 39.8341C174.839 39.8341 173.303 39.5462 171.911 38.9702C170.519 38.3943 169.32 37.5784 168.264 36.5706C167.256 35.5627 166.44 34.3149 165.864 32.9231C165.288 31.5313 165 29.9955 165 28.3158C165 26.78 165.288 25.2922 165.816 23.9004C166.392 22.5086 167.16 21.2608 168.168 20.253C169.176 19.1971 170.327 18.3812 171.719 17.7573C173.063 17.1334 174.599 16.8455 176.231 16.8455C177.958 16.8455 179.494 17.1334 180.838 17.7093C182.182 18.2853 183.333 19.0531 184.245 20.109C185.157 21.1168 185.829 22.3167 186.309 23.7085C186.789 25.1003 187.029 26.588 187.029 28.2198C187.029 28.4118 187.029 28.6038 187.029 28.7477C186.981 28.9397 186.981 29.0837 186.981 29.2277C186.933 29.3716 186.933 29.5156 186.933 29.7076H170.663C170.759 30.5715 170.999 31.3394 171.383 31.9633C171.767 32.5872 172.199 33.1151 172.727 33.547C173.255 33.979 173.879 34.2669 174.503 34.4589C175.127 34.6509 175.799 34.7469 176.47 34.7469C177.814 34.7469 178.87 34.4589 179.734 33.835C180.598 33.2111 181.27 32.4912 181.798 31.5793L186.693 33.931ZM181.414 25.5802C181.366 25.1962 181.27 24.7643 181.03 24.2844C180.79 23.8044 180.502 23.3725 180.07 22.9406C179.638 22.5086 179.11 22.1727 178.486 21.9327C177.862 21.6448 177.094 21.5488 176.231 21.5488C174.983 21.5488 173.927 21.8847 172.967 22.6046C172.007 23.3245 171.383 24.2844 170.999 25.5802H181.414Z" fill="white"/>
<path d="M205.266 36.5708H204.93C204.402 37.4827 203.586 38.2505 202.482 38.9224C201.379 39.5464 199.987 39.8823 198.355 39.8823C196.963 39.8823 195.667 39.5944 194.42 39.0184C193.172 38.4425 192.068 37.6746 191.108 36.6188C190.148 35.6109 189.38 34.4111 188.852 32.9713C188.277 31.5795 188.037 29.9957 188.037 28.364C188.037 26.6842 188.325 25.1485 188.852 23.7567C189.428 22.3649 190.148 21.117 191.108 20.1092C192.068 19.1013 193.172 18.2855 194.42 17.7095C195.667 17.1336 196.963 16.8457 198.355 16.8457C199.987 16.8457 201.379 17.1816 202.482 17.8055C203.586 18.4294 204.402 19.2453 204.93 20.1572H205.266L204.93 17.0856V7.58301H210.689V39.1624H205.266V36.5708ZM199.507 34.5071C200.275 34.5071 200.995 34.3631 201.667 34.0752C202.338 33.7872 202.962 33.4033 203.49 32.8753C204.018 32.3474 204.45 31.7235 204.786 30.9556C205.122 30.1877 205.266 29.3238 205.266 28.364C205.266 27.4041 205.122 26.5403 204.786 25.7724C204.45 25.0045 204.018 24.3806 203.49 23.8526C202.962 23.3247 202.338 22.9408 201.667 22.6528C200.995 22.3649 200.227 22.2209 199.507 22.2209C198.739 22.2209 198.019 22.3649 197.347 22.6528C196.675 22.9408 196.051 23.3727 195.523 23.9006C194.996 24.4286 194.564 25.1005 194.228 25.8204C193.892 26.5882 193.748 27.4521 193.748 28.364C193.748 29.3238 193.892 30.1397 194.228 30.9076C194.564 31.6755 194.996 32.2994 195.523 32.8273C196.051 33.3553 196.675 33.7872 197.347 34.0752C198.019 34.3631 198.739 34.5071 199.507 34.5071Z" fill="white"/>
<path d="M216.352 7.67895H216.064V5.2793H216.88C217.072 5.2793 217.264 5.32729 217.408 5.47127C217.552 5.61525 217.648 5.75923 217.648 5.99919C217.648 6.14317 217.6 6.33514 217.504 6.43113C217.408 6.57511 217.264 6.6231 217.072 6.67109L217.744 7.63095H217.36L216.688 6.67109H216.352V7.67895ZM216.352 5.56726V6.43113H216.832C216.976 6.43113 217.072 6.38314 217.168 6.28715C217.264 6.19116 217.312 6.09518 217.312 5.99919C217.312 5.90321 217.264 5.80722 217.168 5.71123C217.072 5.61525 216.976 5.56726 216.88 5.56726H216.352Z" fill="white"/>
<path d="M216.736 9.50265C218.38 9.50265 219.712 8.17044 219.712 6.52708C219.712 4.88372 218.38 3.55151 216.736 3.55151C215.093 3.55151 213.761 4.88372 213.761 6.52708C213.761 8.17044 215.093 9.50265 216.736 9.50265Z" stroke="white" stroke-width="0.47993" stroke-miterlimit="10"/>
</g>
<defs>
<clipPath id="clip0_2_28">
<rect width="220" height="53.8962" fill="white"/>
</clipPath>
<clipPath id="clip1_2_28">
<rect width="52.3124" height="22.5567" fill="white" transform="translate(3.83942 13.438)"/>
</clipPath>
</defs>
</svg>
