<svg width="48" height="48" viewBox="0 0 48 48" fill="none" xmlns="http://www.w3.org/2000/svg">
<path fill-rule="evenodd" clip-rule="evenodd" d="M40.3586 21.04C39.4386 21.96 38.2786 22.78 36.9586 23.28C34.8786 28.4 29.8786 32 23.9986 32C18.1186 32 13.1186 28.4 11.0386 23.28C9.71859 22.78 8.55859 21.96 7.63859 21.04C5.77859 18.98 4.55859 16.52 4.55859 13.64C4.55859 10.76 6.81859 8.5 9.69859 8.5H10.8186C12.1186 5.84 14.8386 4 17.9986 4H29.9986C33.1586 4 35.8786 5.84 37.1786 8.5H38.2986C41.1786 8.5 43.4386 10.76 43.4386 13.64C43.4386 16.52 42.2186 18.98 40.3586 21.04ZM28.4386 18.42L29.6786 16.9C30.4586 15.98 30.1186 14.96 28.9586 14.66L27.0586 14.18C26.7586 14.1 26.3986 13.82 26.2386 13.56L25.1786 11.92C24.5186 10.9 23.4786 10.9 22.8186 11.92L21.7586 13.56C21.5986 13.82 21.2386 14.1 20.9386 14.18L19.0386 14.66C17.8786 14.96 17.5386 15.98 18.3186 16.9L19.5586 18.42C19.7586 18.64 19.8986 19.08 19.8786 19.38L19.7586 21.34C19.6786 22.54 20.5386 23.16 21.6586 22.72L23.4786 22C23.7586 21.9 24.2386 21.9 24.5186 22L26.3386 22.72C27.4586 23.16 28.3186 22.54 28.2386 21.34L28.1186 19.38C28.0986 19.08 28.2386 18.64 28.4386 18.42ZM18 36.5018H22.5V31.9218C23 31.9818 23.5 32.0018 24 32.0018C24.5 32.0018 25 31.9818 25.5 31.9218V36.5018H30C32.2 36.5018 34 38.3018 34 40.5018V41.0018H36C36.82 41.0018 37.5 41.6818 37.5 42.5018C37.5 43.3218 36.82 44.0018 36 44.0018H12C11.18 44.0018 10.5 43.3218 10.5 42.5018C10.5 41.6818 11.18 41.0018 12 41.0018H14V40.5018C14 38.3018 15.8 36.5018 18 36.5018Z" fill="url(#paint0_linear_2_289)"/>
<defs>
<linearGradient id="paint0_linear_2_289" x1="23.9986" y1="4" x2="23.9986" y2="32" gradientUnits="userSpaceOnUse">
<stop stop-color="white"/>
<stop offset="1" stop-color="#529FFF"/>
</linearGradient>
</defs>
</svg>
