<svg width="106" height="53" viewBox="0 0 106 53" fill="none" xmlns="http://www.w3.org/2000/svg">
<circle cx="26.5" cy="26.5" r="26.5" fill="url(#paint0_linear_2_99)"/>
<path d="M52.518 10.4065C52.518 4.65914 57.3493 -0.182199 62.6591 2.01721C65.8742 3.34896 68.7956 5.30093 71.2563 7.76169C73.7171 10.2224 75.6691 13.1438 77.0008 16.3589C78.3325 19.574 79.018 23.02 79.018 26.5C79.018 29.98 78.3325 33.426 77.0008 36.6411C75.6691 39.8562 73.7171 42.7776 71.2563 45.2383C68.7956 47.6991 65.8742 49.6511 62.6591 50.9828C57.3493 53.1822 52.518 48.3409 52.518 42.5935L52.518 26.5L52.518 10.4065Z" fill="url(#paint1_linear_2_99)"/>
<path d="M79.018 10.2268C79.018 4.57869 83.7708 -0.178243 88.9747 2.01721C92.1314 3.34896 94.9996 5.30093 97.4156 7.76169C99.8316 10.2224 101.748 13.1438 103.056 16.3589C104.363 19.574 105.036 23.02 105.036 26.5C105.036 29.98 104.363 33.426 103.056 36.6411C101.748 39.8562 99.8316 42.7776 97.4156 45.2383C94.9996 47.6991 92.1314 49.6511 88.9747 50.9828C83.7708 53.1783 79.018 48.4213 79.018 42.7732L79.018 26.5L79.018 10.2268Z" fill="url(#paint2_linear_2_99)"/>
<defs>
<linearGradient id="paint0_linear_2_99" x1="26.5" y1="0" x2="26.5" y2="53" gradientUnits="userSpaceOnUse">
<stop stop-color="#206AC6"/>
<stop offset="1" stop-color="#206AC6" stop-opacity="0"/>
</linearGradient>
<linearGradient id="paint1_linear_2_99" x1="26.018" y1="26.5" x2="86.5" y2="80.5" gradientUnits="userSpaceOnUse">
<stop stop-color="#8CBFFF"/>
<stop offset="1" stop-color="#8CBFFF" stop-opacity="0"/>
</linearGradient>
<linearGradient id="paint2_linear_2_99" x1="79" y1="27" x2="110.5" y2="66" gradientUnits="userSpaceOnUse">
<stop stop-color="#C9E1FF"/>
<stop offset="1" stop-color="#C9E1FF" stop-opacity="0"/>
</linearGradient>
</defs>
</svg>
