<svg width="61" height="61" viewBox="0 0 61 61" fill="none" xmlns="http://www.w3.org/2000/svg">
<path opacity="0.4" d="M6.55652 23.9431C6.35318 23.9431 6.12443 23.9178 5.9211 23.8415C4.92985 23.4857 4.42154 22.3927 4.75196 21.4015C6.45488 16.6231 9.40323 12.4295 13.3428 9.25237C14.1562 8.59154 15.3507 8.7186 16.0115 9.53193C16.6724 10.3453 16.5453 11.5398 15.732 12.2261C12.3516 14.9457 9.8099 18.5548 8.36115 22.6723C8.08157 23.4602 7.34443 23.9431 6.55652 23.9431Z" fill="url(#paint0_linear_2_276)"/>
<path opacity="0.4" d="M6.55745 40.87C5.76954 40.87 5.03248 40.3871 4.7529 39.5992C3.71081 36.6254 3.17706 33.5754 3.17706 30.5C3.17706 29.4579 4.04123 28.5938 5.08331 28.5938C6.1254 28.5938 6.98956 29.4579 6.98956 30.5C6.98956 33.1433 7.44709 35.7867 8.36209 38.3283C8.71792 39.3196 8.18412 40.4125 7.19287 40.7683C6.98954 40.8446 6.76079 40.87 6.55745 40.87Z" fill="url(#paint1_linear_2_276)"/>
<path opacity="0.4" d="M30.5015 57.8231C27.8074 57.8231 25.1386 57.4165 22.5461 56.6285C21.5294 56.3235 20.9703 55.256 21.2753 54.2394C21.5803 53.2227 22.6478 52.6635 23.6645 52.9685C25.8757 53.6548 28.1886 53.9849 30.5015 53.9849C43.464 53.9849 54.012 43.437 54.012 30.4745C54.012 29.1529 53.8849 27.7804 53.6307 26.3316C53.4528 25.2896 54.139 24.2984 55.1811 24.1205C56.1978 23.9425 57.2145 24.6288 57.3924 25.6708C57.6974 27.3483 57.8499 28.9244 57.8499 30.5002C57.8244 45.5723 45.5736 57.8231 30.5015 57.8231Z" fill="url(#paint2_linear_2_276)"/>
<path opacity="0.4" d="M14.5389 52.1044C14.1068 52.1044 13.7001 51.9773 13.3443 51.6723C11.8956 50.5032 10.7264 49.3846 9.73511 48.2408C9.04886 47.4529 9.15056 46.2329 9.93847 45.5467C10.7518 44.8604 11.9464 44.9623 12.6326 45.7502C13.4714 46.7161 14.4881 47.6817 15.7335 48.6983C16.5468 49.3592 16.6739 50.554 16.013 51.3673C15.6572 51.8503 15.0981 52.1044 14.5389 52.1044Z" fill="url(#paint3_linear_2_276)"/>
<path opacity="0.4" d="M51.4443 18.0205C50.8343 18.0205 50.2497 17.7409 49.8685 17.1817C45.4714 10.7767 38.2277 6.96416 30.501 6.96416C28.1881 6.96416 25.8752 7.29463 23.6639 7.98088C22.6727 8.28588 21.6052 7.72671 21.2747 6.71005C20.9443 5.69338 21.5289 4.62588 22.5456 4.32088C25.1381 3.53296 27.8068 3.12622 30.501 3.12622C39.4985 3.12622 47.9114 7.57424 53.0202 14.9959C53.6047 15.8601 53.4014 17.0546 52.5372 17.6392C52.2068 17.9188 51.8256 18.0205 51.4443 18.0205Z" fill="url(#paint4_linear_2_276)"/>
<path d="M40.7429 16.5207C39.9042 15.8853 38.3792 15.2499 35.9392 15.9107L27.8313 18.0966C25.4929 18.7574 23.9679 20.7399 23.9679 23.1799V27.3483V33.9058C23.3071 33.6517 22.5954 33.4992 21.8329 33.4992C18.5542 33.4992 15.8854 36.1679 15.8854 39.4467C15.8854 42.7254 18.5542 45.3942 21.8329 45.3942C25.0863 45.3942 27.7042 42.7762 27.755 39.5483C27.755 39.5229 27.7804 39.4975 27.7804 39.4467V28.7971L38.7604 25.7979V31.2117C38.0996 30.9575 37.3879 30.805 36.6254 30.805C33.3467 30.805 30.6779 33.4737 30.6779 36.7525C30.6779 40.0312 33.3467 42.7 36.6254 42.7C39.9042 42.7 42.5729 40.0312 42.5729 36.7525V23.3069V20.9686C42.5729 18.9353 41.9629 17.4357 40.7429 16.5207ZM21.8329 41.5817C20.6638 41.5817 19.6979 40.6158 19.6979 39.4467C19.6979 38.2775 20.6638 37.3117 21.8329 37.3117C23.0021 37.3117 23.9679 38.2775 23.9679 39.4467C23.9679 40.6158 23.0021 41.5817 21.8329 41.5817ZM36.6254 38.8875C35.4563 38.8875 34.4904 37.9217 34.4904 36.7525C34.4904 35.5833 35.4563 34.6175 36.6254 34.6175C37.7946 34.6175 38.7604 35.5833 38.7604 36.7525C38.7604 37.9217 37.7946 38.8875 36.6254 38.8875Z" fill="url(#paint5_linear_2_276)"/>
<g clip-path="url(#clip0_2_276)">
<path d="M49.9999 58.3334C54.5999 58.3334 58.3333 54.6 58.3333 50C58.3333 45.4 54.5999 41.6667 49.9999 41.6667C45.3999 41.6667 41.6666 45.4 41.6666 50C41.6666 54.6 45.3999 58.3334 49.9999 58.3334ZM47.0583 49.1417L49.5583 46.6417C49.6833 46.5167 49.8416 46.4584 49.9999 46.4584C50.1583 46.4584 50.3166 46.5167 50.4416 46.6417L52.9416 49.1417C53.1833 49.3834 53.1833 49.7834 52.9416 50.025C52.6999 50.2667 52.2999 50.2667 52.0583 50.025L50.6249 48.5917L50.6249 52.9167C50.6249 53.2584 50.3416 53.5417 49.9999 53.5417C49.6583 53.5417 49.3749 53.2584 49.3749 52.9167L49.3749 48.5917L47.9416 50.025C47.6999 50.2667 47.2999 50.2667 47.0583 50.025C46.8166 49.7834 46.8166 49.3834 47.0583 49.1417Z" fill="url(#paint6_linear_2_276)"/>
</g>
<defs>
<linearGradient id="paint0_linear_2_276" x1="10.5432" y1="8.82886" x2="10.5432" y2="23.9431" gradientUnits="userSpaceOnUse">
<stop stop-color="white"/>
<stop offset="1" stop-color="#529FFF"/>
</linearGradient>
<linearGradient id="paint1_linear_2_276" x1="5.82482" y1="28.5938" x2="5.82482" y2="40.87" gradientUnits="userSpaceOnUse">
<stop stop-color="white"/>
<stop offset="1" stop-color="#529FFF"/>
</linearGradient>
<linearGradient id="paint2_linear_2_276" x1="39.521" y1="24.0924" x2="39.521" y2="57.8231" gradientUnits="userSpaceOnUse">
<stop stop-color="white"/>
<stop offset="1" stop-color="#529FFF"/>
</linearGradient>
<linearGradient id="paint3_linear_2_276" x1="12.8573" y1="45.0897" x2="12.8573" y2="52.1044" gradientUnits="userSpaceOnUse">
<stop stop-color="white"/>
<stop offset="1" stop-color="#529FFF"/>
</linearGradient>
<linearGradient id="paint4_linear_2_276" x1="37.2672" y1="3.12622" x2="37.2672" y2="18.0205" gradientUnits="userSpaceOnUse">
<stop stop-color="white"/>
<stop offset="1" stop-color="#529FFF"/>
</linearGradient>
<linearGradient id="paint5_linear_2_276" x1="29.2292" y1="15.631" x2="29.2292" y2="45.3942" gradientUnits="userSpaceOnUse">
<stop stop-color="white"/>
<stop offset="1" stop-color="#529FFF"/>
</linearGradient>
<linearGradient id="paint6_linear_2_276" x1="49.9999" y1="58.3334" x2="45.5" y2="39" gradientUnits="userSpaceOnUse">
<stop stop-color="white"/>
<stop offset="1" stop-color="#529FFF"/>
</linearGradient>
<clipPath id="clip0_2_276">
<rect width="20" height="20" fill="white" transform="translate(61 59) rotate(180)"/>
</clipPath>
</defs>
</svg>
