<svg width="20" height="20" viewBox="0 0 20 20" fill="none" xmlns="http://www.w3.org/2000/svg">
<g clip-path="url(#clip0_2_257)">
<path d="M9.20497 4.36598L7.75844 6.19973L5.42781 6.04772C4.52785 5.98895 3.95035 6.9886 4.45137 7.73891L5.74835 9.6813L4.88355 11.8509C4.54959 12.6887 5.32185 13.5467 6.19026 13.3021L8.43838 12.6689L10.2345 14.1618C10.928 14.7382 11.9828 14.269 12.0186 13.3675L12.1109 11.0337L14.0859 9.78677C14.8497 9.30444 14.7258 8.15631 13.8817 7.84467L11.6907 7.03561L11.1151 4.77201C10.8928 3.89797 9.76376 3.65762 9.20497 4.36598Z" fill="#103E77"/>
<path d="M2.95858 9.57844L2.01429 9.67771C1.758 9.70469 1.57203 9.93431 1.59901 10.1906C1.62595 10.4469 1.85559 10.6328 2.11189 10.6059L3.05618 10.5066C3.31261 10.4796 3.49844 10.2499 3.47146 9.99374C3.44454 9.73745 3.21488 9.5515 2.95858 9.57844Z" fill="#103E77"/>
<path d="M7.99424 14.6244C7.74217 14.5708 7.49429 14.7316 7.44076 14.9838L7.23936 15.9314C7.18574 16.1835 7.3467 16.4313 7.59881 16.4849C7.85138 16.5386 8.09893 16.3769 8.15229 16.1254L8.3537 15.1778C8.40732 14.9257 8.24636 14.6779 7.99424 14.6244Z" fill="#103E77"/>
<path d="M6.12491 2.35154C5.88947 2.45632 5.78357 2.73217 5.88837 2.96763L6.27455 3.83504C6.37935 4.0705 6.65524 4.17639 6.89065 4.07156C7.12617 3.96669 7.23195 3.69084 7.12719 3.45547L6.74102 2.58806C6.63621 2.3526 6.36035 2.24672 6.12491 2.35154Z" fill="#103E77"/>
<path d="M13.9167 4.36575L13.1968 5.01399C13.0051 5.18636 12.9898 5.4815 13.1622 5.67303C13.3347 5.86457 13.6297 5.88005 13.8213 5.70758L14.5412 5.05934C14.7325 4.88728 14.7485 4.59209 14.5758 4.40029C14.4033 4.20878 14.1083 4.1933 13.9167 4.36575Z" fill="#103E77"/>
<path d="M13.7111 11.9574C13.5822 12.1806 13.6587 12.466 13.8819 12.5949L14.7022 13.0685C14.9253 13.1973 15.2107 13.1208 15.3396 12.8977C15.4685 12.6745 15.392 12.3891 15.1688 12.2602L14.3486 11.7866C14.1254 11.6578 13.84 11.7342 13.7111 11.9574Z" fill="#103E77"/>
</g>
<defs>
<clipPath id="clip0_2_257">
<rect width="14" height="14" fill="white" transform="translate(0 12.1243) rotate(-60)"/>
</clipPath>
</defs>
</svg>
