<svg width="48" height="48" viewBox="0 0 48 48" fill="none" xmlns="http://www.w3.org/2000/svg">
<path d="M11.4787 32C11.6987 31.02 11.2987 29.62 10.5987 28.92L5.73874 24.06C4.21874 22.54 3.61874 20.92 4.05874 19.52C4.51874 18.12 5.93874 17.16 8.05874 16.8L14.2987 15.76C15.1987 15.6 16.2987 14.8 16.7187 13.98L20.1588 7.08C21.1588 5.1 22.5188 4 23.9988 4C25.4788 4 26.8388 5.1 27.8388 7.08L31.2788 13.98C31.5388 14.5 32.0788 15 32.6588 15.34L11.1187 36.88C10.8387 37.16 10.3587 36.9 10.4387 36.5L11.4787 32Z" fill="url(#paint0_linear_2_285)"/>
<path d="M37.4016 28.9198C36.6816 29.6398 36.2816 31.0198 36.5216 31.9998L37.9016 38.0198C38.4816 40.5198 38.1216 42.3998 36.8816 43.2998C36.3816 43.6598 35.7816 43.8398 35.0816 43.8398C34.0616 43.8398 32.8616 43.4598 31.5416 42.6798L25.6816 39.1998C24.7616 38.6598 23.2416 38.6598 22.3216 39.1998L16.4616 42.6798C14.2416 43.9798 12.3416 44.1998 11.1216 43.2998C10.6616 42.9598 10.3216 42.4998 10.1016 41.8998L34.4216 17.5798C35.3416 16.6598 36.6416 16.2398 37.9016 16.4598L39.9216 16.7998C42.0416 17.1598 43.4616 18.1198 43.9216 19.5198C44.3616 20.9198 43.7616 22.5398 42.2416 24.0598L37.4016 28.9198Z" fill="url(#paint1_linear_2_285)"/>
<defs>
<linearGradient id="paint0_linear_2_285" x1="18.2884" y1="4" x2="18.2884" y2="36.9971" gradientUnits="userSpaceOnUse">
<stop stop-color="white"/>
<stop offset="1" stop-color="#529FFF"/>
</linearGradient>
<linearGradient id="paint1_linear_2_285" x1="27.082" y1="16.4023" x2="27.082" y2="43.8448" gradientUnits="userSpaceOnUse">
<stop stop-color="white"/>
<stop offset="1" stop-color="#529FFF"/>
</linearGradient>
</defs>
</svg>
