<svg width="13" height="13" viewBox="0 0 13 13" fill="none" xmlns="http://www.w3.org/2000/svg">
<g clip-path="url(#clip0_2_169)">
<path d="M3.48273 7.29713L3.46203 7.97858C3.42778 9.10591 4.31695 10.0508 5.44428 10.0851L6.12574 10.1058L6.07329 11.8321L7.4362 11.8735L7.48865 10.1472L8.0024 10.1628C9.22222 10.1998 10.2446 9.23773 10.2817 8.01791C10.3126 7.00072 9.65027 6.09735 8.67117 5.82082L7.62903 5.52633L7.69568 3.33262L8.37713 3.35332C8.7528 3.36473 9.0493 3.67982 9.03788 4.05548L9.01718 4.73693L10.3801 4.77834L10.4008 4.09689C10.435 2.96956 9.54587 2.02466 8.41854 1.99041L7.73708 1.96971L7.78953 0.243359L6.42662 0.201953L6.37418 1.9283L5.86043 1.9127C4.6406 1.87564 3.61821 2.83773 3.58115 4.05756C3.55025 5.07474 4.21255 5.97812 5.19165 6.25464L6.23379 6.54913L6.16714 8.74285L5.48569 8.72214C5.11003 8.71073 4.81353 8.39565 4.82494 8.01999L4.84564 7.33853L3.48273 7.29713ZM7.58635 6.93133L8.30027 7.13307C8.6764 7.23908 8.93063 7.58584 8.91876 7.9765C8.90454 8.44466 8.51198 8.81409 8.0438 8.79986L7.53005 8.78425L7.58635 6.93133ZM5.56255 4.94237C5.18642 4.83636 4.93219 4.4896 4.94406 4.09894C4.95829 3.63078 5.35084 3.26136 5.81902 3.27558L6.33277 3.29119L6.27648 5.14411L5.56255 4.94237Z" fill="#182157"/>
</g>
<defs>
<clipPath id="clip0_2_169">
<rect width="11.6355" height="11.6355" fill="white" transform="translate(1.29297 0.0459595) rotate(1.74015)"/>
</clipPath>
</defs>
</svg>
