<svg width="14" height="14" viewBox="0 0 14 14" fill="none" xmlns="http://www.w3.org/2000/svg">
<mask id="mask0_347_17" style="mask-type:luminance" maskUnits="userSpaceOnUse" x="0" y="0" width="14" height="14">
<path d="M14 0H0V14H14V0Z" fill="white"/>
</mask>
<g mask="url(#mask0_347_17)">
<path d="M11.3214 4.0926L9.0101 3.75675L7.9764 1.66236C7.5773 0.853588 6.4229 0.853288 6.0236 1.66233L4.98991 3.75675L2.67858 4.0926C1.78608 4.2223 1.42911 5.3201 2.07513 5.9499L3.74763 7.5802L3.35282 9.8821C3.20035 10.771 4.13403 11.4498 4.93271 11.03L7 9.9431L9.0673 11.03C9.867 11.4503 10.7993 10.769 10.6472 9.8821L10.2523 7.5802L11.9249 5.9499C12.5707 5.3203 12.2143 4.2224 11.3214 4.0926Z" fill="#091245"/>
<path d="M3.68405 1.2893L3.12594 0.521159C2.97443 0.312689 2.68259 0.266459 2.47412 0.417969C2.26562 0.569449 2.21941 0.861289 2.3709 1.06979L2.92901 1.83793C3.0806 2.0465 3.37247 2.09258 3.58083 1.94112C3.78932 1.78966 3.83553 1.4978 3.68405 1.2893Z" fill="#091245"/>
<path d="M1.83194 8.17332C1.75228 7.92822 1.48907 7.79392 1.24391 7.87362L0.322561 8.17303C0.0774608 8.25263 -0.0566688 8.51592 0.0229612 8.76112C0.102751 9.00662 0.366511 9.14023 0.610991 9.06073L1.53236 8.76132C1.77747 8.68172 1.91159 8.41842 1.83194 8.17332Z" fill="#091245"/>
<path d="M11.5259 0.417982C11.3174 0.266462 11.0256 0.312672 10.8741 0.521172L10.316 1.28931C10.1645 1.49781 10.2107 1.78967 10.4192 1.94113C10.6278 2.09267 10.9196 2.04635 11.071 1.83793L11.6291 1.06979C11.7806 0.861302 11.7344 0.569462 11.5259 0.417982Z" fill="#091245"/>
<path d="M13.6775 8.17307L12.7561 7.87367C12.511 7.79387 12.2477 7.92817 12.1681 8.17327C12.0884 8.41837 12.2225 8.68157 12.4677 8.76127L13.389 9.06067C13.6336 9.14027 13.8973 9.00647 13.9771 8.76107C14.0567 8.51597 13.9226 8.25267 13.6775 8.17307Z" fill="#091245"/>
<path d="M6.99999 11.7908C6.74229 11.7908 6.53329 11.9997 6.53329 12.2574V13.2046C6.53329 13.4623 6.74229 13.6712 6.99999 13.6712C7.25769 13.6712 7.46659 13.4623 7.46659 13.2046V12.2574C7.46659 11.9997 7.25769 11.7908 6.99999 11.7908Z" fill="#091245"/>
</g>
</svg>
